# xmcd CD database file
#
# Track frame offsets:
#	150
#	16814
#	28534
#	45415
#	59619
#	74936
#	88208
#	105630
#	119548
#	131837
#	151976
#	165598
#	183478
#
# Disc length: 2629 seconds
#
# Revision: 0
# Processed by: cddbd v1.4PL0 Copyright (c) Steve Scherf et al.
# Submitted via: CDex 1.50beta10
#
DISCID=b60a430d
DTITLE=Dianne Killen - Pattern of My Heart
DYEAR=1900
DGENRE=Country
TTITLE0=Lord, Grant Me Patience
TTITLE1=Nothing Between Us Tonight
TTITLE2=Every Time We Kiss
TTITLE3=If Only Love Had Left Me Blind
TTITLE4=Pattern Of My Heart
TTITLE5=My Heart Will Prove You Wrong
TTITLE6=Give You What I Need
TTITLE7=Lovin' On Borrowed Time
TTITLE8=Just The Kind Of Thing
TTITLE9=As Long As I Have You In My Heart
TTITLE10=Tonight, I'm Gonna Fall In Love
TTITLE11=This Is Love
TTITLE12=I Just Can't Find It In My Heart
EXTD=
EXTT0=
EXTT1=
EXTT2=
EXTT3=
EXTT4=
EXTT5=
EXTT6=
EXTT7=
EXTT8=
EXTT9=
EXTT10=
EXTT11=
EXTT12=
PLAYORDER=
